<?xml version="1.0" encoding="utf-8"?>
<!-- Generator: Adobe Illustrator 24.3.0, SVG Export Plug-In . SVG Version: 6.00 Build 0)  -->
<svg version="1.1" id="Background" xmlns="http://www.w3.org/2000/svg" xmlns:xlink="http://www.w3.org/1999/xlink" x="0px" y="0px"
	 viewBox="0 0 753.4 437" style="enable-background:new 0 0 753.4 437;" xml:space="preserve">
<path style="fill:#D70000;" d="M376.7,98.9c-31.7,0-52,13.6-62.5,23.8c16.4-31.3,51-80.1,100.7-122.7h-28.8
	c-53.9,49.9-112.4,136.5-112.4,198.9c0,61.2,44,104.3,103,104.3s103-44,103-102.1S435.7,98.9,376.7,98.9L376.7,98.9z M374.8,285.1
	c-48,0-81.2-34.1-81.2-84.3c0-44.9,33.3-79.9,81.2-79.9s81.2,35,81.2,82.1S422.7,285.1,374.8,285.1L374.8,285.1z"/>
<linearGradient id="SVGID_1_" gradientUnits="userSpaceOnUse" x1="16.7" y1="263.7" x2="736.6" y2="263.7" gradientTransform="matrix(1 0 0 -1 0 438)">
	<stop  offset="0" style="stop-color:#C48739"/>
	<stop  offset="8.100000e-02" style="stop-color:#C89042"/>
	<stop  offset="0.216" style="stop-color:#D4A95C"/>
	<stop  offset="0.387" style="stop-color:#E8D085"/>
	<stop  offset="0.5" style="stop-color:#F6EEA4"/>
	<stop  offset="0.995" style="stop-color:#C48739"/>
</linearGradient>
<path style="fill:url(#SVGID_1_);" d="M303.1,274l0.3,0.3L303.1,274z M396,274.3c11.2-3,21.2-8.4,29.4-16H324c8,7.5,17.8,13,29.2,16
	H396z M355.4,74.3c-4.2,5.5-8.1,10.8-11.8,16h377.1v168H472.5c-3.4,5.7-7.2,11.1-11.6,16h275.7v-200H355.4z M281.1,258.3H32.7v-168
	H303c3.2-5.3,6.6-10.7,10.1-16H16.7v200h275.8C288.2,269.4,284.4,264,281.1,258.3L281.1,258.3z"/>
<path style="fill:#FFFFFF;" d="M109.7,185.9H81.8v48.4H67.6V117.7h44.2c23.7,0,39.4,13.1,39.4,34.1c0,16.6-9.9,28.3-25.8,32.5
	l32.9,50h-16.8L109.7,185.9L109.7,185.9z M81.8,172.7h29.9c16.6,0,24.7-6.9,24.7-20.9s-8.1-20.9-24.7-20.9H81.8L81.8,172.7
	L81.8,172.7z M259.7,221.1v13.3h-84.5V117.7h81.9V131h-67.7v37.7H242V182h-52.7v39.2L259.7,221.1L259.7,221.1z M373.6,176
	c0,37.5-22.1,58.3-58.7,58.3h-37.7V117.7h37.7C351.5,117.7,373.6,138.5,373.6,176z M358.7,176c0-28.3-15.7-45.1-42.4-45.1h-24.9
	v90.2h24.9C343,221.1,358.7,204.3,358.7,176z M538.7,140.7l-12.2,9.9c-7.1-15.4-15.6-21.4-32.7-21.4c-18.6,0-28.8,8.7-28.8,19.8
	c0,11,7.8,16.4,32.4,20.7c31.3,5.3,42.4,15.2,42.4,33.2c0,20-17.9,33.2-45.1,33.2c-24.7,0-41-10.8-49.1-25.3l12.2-9.9
	c6.2,13.4,18.2,21.9,37.3,21.9c18,0,30.1-6.7,30.1-19.3c0-10.1-7.6-15.9-32.2-20.2c-31.5-5.5-42.8-15-42.8-32.9
	c0-18.7,16.4-34.6,43.5-34.6C515,115.9,529.7,124.4,538.7,140.7L538.7,140.7z M574.5,234.4h-14.1V117.7h14.1V234.4z M669.3,234.4
	l-31.6-48.3l-31.6,48.3h-16.4l40.8-59.4l-37.3-57.3H610l29.7,45.6l29.9-45.6h15l-37.7,56.6l38.9,60.1H669.3L669.3,234.4z"/>
<g>
	<path style="fill:#FFFFFF;" d="M60.4,382.1c-3.9,9.5-16.8,39.1-31.9,34.3c-10.7-3.4-9.6-21.2-8.9-29.4c0.4-5.3,1.2-10.7,2.2-16
		c-7.5,11-17.4,19.6-20.8,4c-3.4-15.3,2.5-34.5,6.1-49.5c0.3-1.2,4.1,3.3,3.7,5.1c-3.1,11.8-5.2,23.9-6.3,36.1
		c-0.4,5.7-2.2,14.9,5.3,9.1c7.8-6.5,13.5-15.1,16.5-24.8c0.3-1,0.5-2,0.8-3.1c0.4-1.3,4.1,3.4,3.7,5.1c-2.5,8.9-4.5,18-6,27.1
		c-1.2,7.3-6.9,35,7.3,29.8c13.9-5.1,22-25.8,26.5-38.4c7-19.4,10.9-41.8,5.1-62.1c-1.2-4,2.9,0,3.4,1.8
		C73.9,334.7,69.4,360.2,60.4,382.1z M103.9,390.9c-8.2,6.6-15.1,6.1-15.2-5.5c0-1,1.2-6.7,0.7-7.5c-0.2-0.2-0.3-0.5-0.3-0.7
		c-0.3,0.3-0.7,0.5-1.1,0.6c-2.6,0.8-5.2,6.3-6.6,8.6c-2.7,3.7-5,7.7-7.1,11.8l-0.6,3.3c-0.4,2.6-3.7-2.7-3.8-3.7v-0.6
		c0-0.9,0.2-1.9,0.5-2.8l10.9-65.6c0.4-2.3,4.1,2.7,3.9,4.3l-7.9,47.1c3.5-5.2,7.4-9.5,10.2-9.4c4,0.1,5.5,5.6,5.8,8.7
		c0.2,2.1-1.9,9.7-0.3,10.7c1.3,0.7,6.4-3.8,7.7-4.8C101.8,384.3,105.3,389.7,103.9,390.9z"/>
	<path style="fill:#FFFFFF;" d="M128.2,369.3c-9.1,20.3-10.1,45.4-11.3,67.2c-0.1,2.2-4-2.6-3.9-4.3c0.8-14.4,1.6-30.4,4.6-45.5
		c-4.6,5.5-10.1,9.3-15.5,6.9c-8.8-4-1.3-19.6,1.1-25.2c0.6-1.4,4.4,3.4,3.7,5.1c-1.3,2.9-2.4,5.9-3.3,8.9c-0.4,1.3-0.8,2.6-1.1,3.9
		c-0.1,2.3,1.7,1.4,1.7,1.4c2.1-0.5,4-1.5,5.7-2.9c6.7-4.8,11.5-13.2,14.7-20.7C125.1,362.8,128.9,367.6,128.2,369.3L128.2,369.3z
		 M169.6,382.6c-2.6,5.2-8,15.4-15.3,14.3c-6.8-1.1-7.7-10.8-8.1-16.2c-1.2-16.9,1.8-34.5,5.2-51c0.4-2.1,6.4-6.2,5.8-3.4
		c-2.3,10.8-3.9,21.8-4.8,32.8c-0.6,7.7-1.3,16.1,0.5,23.7c2,8.1,6.8,10.8,11.2,2C165,382.9,171.3,379.1,169.6,382.6L169.6,382.6z"
		/>
	<path style="fill:#FFFFFF;" d="M192.6,381.5c-5.6,5.3-19.9,17.2-27.2,7.7c-4.9-6.4,0.7-15,5.4-19.7c1.9-1.9,12.1-10.2,11.7-2.7
		c-0.3,5.7-6.3,12.9-11.9,16.6c0.5,0.8,1.1,1.4,1.8,2c6,4.5,13.9-2.4,18-6.3C193.7,376.1,195.9,378.4,192.6,381.5z M171.5,373.9
		c-1.2,1.8-1.9,3.9-1.9,6.1c2-1,9.1-8.5,7.1-10.1C175.3,368.7,172.1,372.9,171.5,373.9L171.5,373.9z"/>
	<path style="fill:#FFFFFF;" d="M227.2,384.1c-3.1,2.8-13.8,12.8-16.2,4.1c-0.4-1.4-0.6-2.9-0.7-4.3c-0.6,1-1.3,2-2,2.9
		c-2.2,2.7-6.6,7.4-10.5,7.3c-2.9-0.1-5.6-4.1-6.7-6.4c-3.4-7.3,0.6-15.7,5.9-21.1c1.9-2,4.9-4.6,8-4.1c2.8,0.4,5,3.4,6.5,5.8
		c0.4-1.2,0.7-2.4,0.9-3.6c0.2-1.1,4.1,3.2,3.7,5.1c0,0.1,0,0.2-0.1,0.2c0,3.6,0.1,7.2,0.4,10.7c0.1,1.5,0.1,4.2,1.7,5.1
		c2.2,1.2,5.6-2.6,6.9-3.9c0.6-0.6,2.8-2.5,3.8-1.5C229.8,381.3,227.9,383.5,227.2,384.1L227.2,384.1z M198.1,387
		c6-3.1,10-9.5,12.4-16c-0.2-0.2-0.4-0.4-0.5-0.7c-3.6-5.7-10.2,1.8-12.5,5.2C195.3,378.5,189.8,391.2,198.1,387z"/>
	<path style="fill:#FFFFFF;" d="M259.1,375.3c-4.2,3.9-8.1,2.8-10.9,0.1c-0.6,1.3-1.2,2.6-1.7,3.8c-1.6,3.4-7.5,18.9-12.8,16.2
		c-3.1-1.6-3.1-7.7-3.4-10.5c-0.3-3.3,0.1-16.8-4.9-14.6c-1.7,0.7-4.7-5-3.3-5.6c5.5-2.4,8.6,4.2,9.9,8.5c0.9,3.6,1.5,7.3,1.7,11
		l0.3,3.9c1.2-1.3,2.7-2.9,3.1-3.5c1.8-2.9,3.4-5.9,4.9-9c0.8-1.8,1.5-4.5,2.4-6.6c-0.7-2.4-0.5-4.5,0.8-4.9c2.4-0.7,4.1,3.1,4.4,5
		c0.1,0.9,0,1.8-0.2,2.7c2.8,1.3,7.5,1.5,9.5-0.3C260,370.4,260.6,374,259.1,375.3L259.1,375.3z"/>
	<path style="fill:#FFFFFF;" d="M283.1,381.5c-5.6,5.3-19.9,17.2-27.2,7.7c-4.9-6.4,0.7-15,5.4-19.7c1.9-1.9,12.1-10.2,11.7-2.7
		c-0.3,5.7-6.3,12.9-11.9,16.6c0.5,0.8,1.1,1.4,1.8,2c6,4.5,13.9-2.4,18-6.3C284.2,376.1,286.4,378.4,283.1,381.5L283.1,381.5z
		 M262,373.9c-1.2,1.8-1.9,3.9-1.9,6.1c2-1,9.1-8.5,7.1-10.1C265.8,368.7,262.7,372.9,262,373.9z M348.2,353.7l-31.5,2.3
		c-6,19.3-10.2,39.1-12.7,59.2c-0.3,3.2-5.7-3.7-5.4-6c2.1-17.8,5.7-35.4,10.7-52.7l-12.3,0.9c-1.8,0.1-4.4-5.6-2.6-5.8l16.6-1.2
		c2.5-8.6,5.1-17.2,7.8-25.6c0.6-1.8,6,4.6,5.2,7.2c-1.8,5.9-3.7,11.9-5.5,17.9l27.1-2C347.3,347.8,349.9,353.5,348.2,353.7
		L348.2,353.7z"/>
	<path style="fill:#FFFFFF;" d="M352,390.9c-8.2,6.6-15.1,6.1-15.2-5.5c0-1,1.2-6.7,0.7-7.5c-0.2-0.2-0.3-0.5-0.3-0.7
		c-0.3,0.3-0.7,0.5-1.1,0.6c-2.6,0.8-5.2,6.3-6.6,8.6c-2.7,3.7-5,7.7-7.1,11.8l-0.6,3.3c-0.4,2.6-3.7-2.7-3.8-3.7v-0.6
		c0-0.9,0.2-1.9,0.5-2.8l10.9-65.6c0.4-2.3,4.1,2.7,3.9,4.3l-7.9,47.1c3.5-5.2,7.4-9.5,10.2-9.4c4,0.1,5.5,5.6,5.8,8.7
		c0.2,2.1-1.9,9.7-0.3,10.7c1.3,0.7,6.4-3.8,7.7-4.8C350,384.3,353.5,389.7,352,390.9L352,390.9z"/>
	<path style="fill:#FFFFFF;" d="M370.2,387.9c-3.9,7-14.3,13.9-19.8,4.6c-4-6.8-1-16.1,1.9-22.8c0.6-1.4,4.4,3.4,3.7,5.1
		c-2.3,5-3.5,10.3-3.6,15.8v0.2l0.4,0.2c1-0.1,2,0.4,3,0.3c2.2-0.3,4.3-1.3,5.9-2.8c1.9-1.6,3.6-3.5,4.8-5.7
		C367.3,381.3,371,386.3,370.2,387.9L370.2,387.9z M350,360.1c1.7-0.9,3.4-1.7,5.1-2.5c0.9-0.4,1.7-0.8,2.6-0.2
		c1.5,1,3.6,4.2,2.1,5.8c-0.2,0.2-0.5,0.1-0.9-0.1c-0.1,0.1-0.3,0.1-0.4,0.2c-0.7,0.3-1.5,0.7-2.2,1l-3,1.5
		C351.7,366.6,348.6,360.9,350,360.1L350,360.1z"/>
	<path style="fill:#FFFFFF;" d="M397.7,380.4c-1.4,5.4-5.2,10-10.3,7.2c-4.7-2.6-4.6-8.3-5.4-13.4l-0.7,0.7
		c-1.9,2.4-3.6,5.1-5.3,7.7c-2.5,4-5,8-7.4,12.1c-1,1.8-4-3.8-3.7-5.1l7.6-31.1c0.3-1.2,4.1,3.3,3.7,5.1l-3,12.3
		c1.8-3.3,4.7-8.5,7.1-9.1c3-0.8,4.3,3.9,4.8,6.1c0.7,3.3,0.9,9.1,3.6,11.1c3.5,2.6,7.1-1.9,7.9-5.2
		C397.1,377.1,398.7,376.6,397.7,380.4L397.7,380.4z"/>
	<path style="fill:#FFFFFF;" d="M431.6,381.8c-3.8,3-8.4,6.6-13,10.6c-0.6,4.8-1.3,9.6-2.2,14.4c-1.2,6.6-3,29.4-12.8,29.4
		c-6.2,0-10.3-8.4-10.7-13.5c-0.9-13,10.7-25.6,21.9-35.4c0-0.3,0.1-0.6,0.1-0.9c0.3-2.2,0.5-4.4,0.7-6.6c-1.2,2.2-2.6,4.3-4.3,6.2
		c-4.6,4.9-12,6.2-15.3-0.7c-3.2-6.7,1.3-21.9,8.6-24.6c5-1.8,8.2,4.3,9.8,8.8c1.3-3.4,2.4-6.8,3.2-10.4c0.3-1.4,3.9,3.4,3.8,4.7
		c-0.4,6.5-1,12.9-1.7,19.4c3.2-2.6,6.2-4.9,8.6-6.9C429.5,375.3,433.1,380.7,431.6,381.8z M413.8,396.7
		c-8.5,7.9-15.9,17.2-16.9,27.1c-0.7,7.3,5.6,8.3,9.1,2.6C410.9,418.3,412.6,407.1,413.8,396.7z M413.2,372.2
		c-0.7-0.7-1.3-1.6-1.6-2.5c-2.6-9.5-10.1,4.3-11.3,7.6c-3.3,9.2,2.6,8.3,7.5,3.2C410,378,411.9,375.2,413.2,372.2L413.2,372.2z"/>
	<path style="fill:#FFFFFF;" d="M458.4,371.7c-4.5,1.7-8.9,3.7-13.2,5.8c1.7,2.5,1.8,5.8,0.2,8.4c-2.5,5.5-10.1,11.9-16.6,8.8
		c-5.5-2.7-0.5-8.9,2.3-11.7c1.6-1.5,3.2-2.9,5-4.2c-3.4-3.8-4.1-7-1.2-12.2c2.9-5.5,8.2-9.2,14.4-9.9c3-0.3-1.5,5.5-3.6,5.7
		c-4.8,0.4-8.5,5.1-5.7,9.4c0.7,1,1.6,2,2.6,2.8c5.8-3.2,11.9-6,18.2-8.3C464.4,364.9,460.3,371,458.4,371.7L458.4,371.7z
		 M436.5,389.6c6.2-0.6,4.1-5.4,1.7-8.4c-2.7,1.6-5.3,3.4-5.8,5.2C431.8,388.8,434.2,389.8,436.5,389.6L436.5,389.6z M522.4,353.7
		l-31.5,2.3c-6,19.3-10.2,39.1-12.7,59.2c-0.3,3.2-5.7-3.7-5.4-6c2.1-17.8,5.7-35.4,10.7-52.7l-12.3,0.9c-1.8,0.1-4.4-5.6-2.6-5.8
		l16.6-1.2c2.5-8.6,5.1-17.2,7.8-25.6c0.6-1.8,6,4.6,5.2,7.2c-1.8,5.9-3.7,11.9-5.5,17.9l27.1-2
		C521.6,347.8,524.2,353.5,522.4,353.7L522.4,353.7z"/>
	<path style="fill:#FFFFFF;" d="M531.7,372c-4.2,1.8-8.5,3.4-12.8,4.7c2.9,7.7-1.4,15.1-8.8,18.5c-7.9,3.7-16.4-2-17.7-10.4
		c-1-6.3,3.7-12.6,8-16.7c0.2-0.2,0.4-0.1,0.7,0c1.2-1.7,2.9-3,4.9-3.6c3.9-0.8,8,3.6,10.6,7.8c6-1.2,11.8-3.1,17.4-5.7
		C537.6,365.2,533.5,371.3,531.7,372L531.7,372z M505.9,390c4.4-1.7,9.8-6.3,10.3-11.3v-1.2c-5.8,1.3-11.3,1.4-14-2.1
		c-1.7,1.9-3.2,3.9-4.4,6.2c-1.3,2.4-2.9,6.1-0.2,8.1C500.1,391.1,503.2,391.2,505.9,390L505.9,390z M508.2,370.5
		c1.5,1.4,3.5,2.1,5.5,2C512.5,370.8,510.3,370,508.2,370.5z M574.6,382.1c-4.3,6.3-10.7,10.9-18,13c-9.2,2.2-9.9-5.3-8.1-12.5
		c1.6-6.6,4.8-16.2,11.1-19.9c6-3.6,9,4.1,10.4,8.7c0.7,2.2-5.2,6.7-5.9,4.5c-0.7-3.2-2.5-6.1-5-8.3c-0.2,0.3-0.4,0.6-0.5,0.9
		c-0.5,0.9-1,1.9-1.5,2.9c-1.2,2.5-2.1,5.1-2.8,7.8c-0.9,3.6-2.3,10.1,2.9,10.7c3.5,0.3,7.8-2.3,10.2-4.5c0.7-0.6,1.3-1.2,1.9-1.9
		c0.2-0.2,1.5-2,0.7-0.7c0.7-1,2.7-3.5,4.1-3.2C575.5,379.9,575.5,381,574.6,382.1L574.6,382.1z"/>
	<path style="fill:#FFFFFF;" d="M604.2,390.9c-8.2,6.6-15.1,6.1-15.2-5.5c0-1,1.2-6.7,0.7-7.5c-0.2-0.2-0.3-0.5-0.3-0.7
		c-0.3,0.3-0.7,0.5-1.1,0.6c-2.6,0.8-5.2,6.3-6.6,8.6c-2.7,3.7-5,7.7-7.1,11.8l-0.6,3.3c-0.4,2.6-3.7-2.7-3.8-3.7v-0.6
		c0-0.9,0.2-1.9,0.5-2.8l10.9-65.6c0.4-2.3,4.1,2.7,3.9,4.3l-7.9,47.1c3.5-5.2,7.4-9.5,10.2-9.4c4,0.1,5.5,5.6,5.8,8.7
		c0.2,2.1-1.9,9.7-0.3,10.7c1.3,0.7,6.4-3.8,7.7-4.8C602.1,384.3,605.7,389.7,604.2,390.9L604.2,390.9z"/>
	<path style="fill:#FFFFFF;" d="M638.4,384.1c-3.1,2.8-13.8,12.8-16.2,4.1c-0.4-1.4-0.6-2.9-0.7-4.3c-0.6,1-1.3,2-2,2.9
		c-2.2,2.7-6.6,7.4-10.5,7.3c-2.9-0.1-5.6-4.1-6.7-6.4c-3.4-7.3,0.6-15.7,5.9-21.1c1.9-2,4.9-4.6,8-4.1c2.8,0.4,5,3.4,6.5,5.8
		c0.4-1.2,0.7-2.4,0.9-3.6c0.2-1.1,4.1,3.2,3.7,5.1c0,0.1,0,0.2-0.1,0.2c0,3.6,0.1,7.2,0.4,10.7c0.1,1.5,0.1,4.2,1.7,5.1
		c2.2,1.2,5.6-2.6,6.9-3.9c0.6-0.6,2.8-2.5,3.8-1.5C641,381.3,639.1,383.5,638.4,384.1L638.4,384.1z M609.3,387
		c6-3.1,10-9.5,12.4-16c-0.2-0.2-0.4-0.4-0.5-0.7c-3.6-5.7-10.2,1.8-12.5,5.2C606.5,378.5,601,391.2,609.3,387z"/>
	<path style="fill:#FFFFFF;" d="M668.3,380.4c-1.4,5.4-5.2,10-10.3,7.2c-4.7-2.6-4.6-8.3-5.4-13.4l-0.7,0.7
		c-1.9,2.4-3.6,5.1-5.3,7.7c-2.5,4-5,8-7.4,12.1c-1,1.8-4-3.8-3.7-5.1l7.6-31.1c0.3-1.2,4.1,3.3,3.7,5.1l-3,12.3
		c1.8-3.3,4.7-8.5,7.1-9.1c3-0.8,4.3,3.9,4.8,6.1c0.7,3.3,0.9,9.1,3.6,11.1c3.5,2.6,7.1-1.9,7.9-5.2
		C667.7,377.1,669.3,376.6,668.3,380.4L668.3,380.4z"/>
	<path style="fill:#FFFFFF;" d="M691.9,382.1c-4.3,6.3-10.7,10.9-18,13c-9.2,2.2-9.9-5.3-8.1-12.5c1.6-6.6,4.8-16.2,11.1-19.9
		c6-3.6,9,4.1,10.4,8.7c0.7,2.2-5.2,6.7-5.9,4.5c-0.7-3.2-2.5-6.1-5-8.3c-0.2,0.3-0.4,0.6-0.5,0.9c-0.5,0.9-1,1.9-1.5,2.9
		c-1.2,2.5-2.1,5.1-2.8,7.8c-0.9,3.6-2.3,10.1,2.9,10.7c3.5,0.3,7.8-2.3,10.2-4.5c0.7-0.6,1.3-1.2,1.9-1.9c0.2-0.2,1.5-2,0.7-0.7
		c0.7-1,2.7-3.5,4.1-3.2C692.8,379.9,692.8,381,691.9,382.1L691.9,382.1z"/>
	<path style="fill:#FFFFFF;" d="M718.1,381.5c-5.6,5.3-19.9,17.2-27.2,7.7c-4.9-6.4,0.7-15,5.4-19.7c1.9-1.9,12.1-10.2,11.7-2.7
		c-0.3,5.7-6.3,12.9-11.9,16.6c0.5,0.8,1.1,1.4,1.8,2c6,4.5,13.9-2.4,18-6.3C719.2,376.1,721.4,378.4,718.1,381.5z M697,373.9
		c-1.2,1.8-1.9,3.9-1.9,6.1c2-1,9.1-8.5,7.1-10.1C700.8,368.7,697.6,372.9,697,373.9L697,373.9z M730.4,383.8
		c0.3,2.3-5.6,6.5-5.9,4.5c-1.6-11.9,7.7-20.5,14.9-28.7c4.9-5.5,11.3-14,5.9-21.4c-4.6-6.3-18.6-6.6-21.2,1.7c-0.6,2-6.7,6-5.4,2.1
		c3.9-12.3,27.3-21.8,33.5-6.3C760,355.1,727.9,365.3,730.4,383.8L730.4,383.8z M730,391.9c-0.6,1.7-0.7,3.6-0.2,5.4
		c1.2,2.3-4.7,6.8-5.5,5.3c-0.9-2.3-1-4.9-0.2-7.2c0.6-1.7,1.8-3.2,3.3-4C728.2,390.8,730.4,390.2,730,391.9L730,391.9z"/>
</g>
</svg>
