<svg version="1.1" xmlns="http://www.w3.org/2000/svg" xmlns:xlink="http://www.w3.org/1999/xlink" x="0px" y="0px"
	 viewBox="0 0 200 200" enable-background="new 0 0 200 200" xml:space="preserve">
	<path d="M165.7,54.3c-5.1,2.3-10.3,4-16,4.6c5.7-3.4,10.3-9.1,12.6-15.4c-5.7,3.4-11.4,5.7-17.7,6.9
		c-5.1-5.7-12.6-9.1-20.6-9.1c-15.4,0-28,12.6-28,28c0,2.3,0,4.6,0.6,6.3c-23.4-1.1-44-12.6-58.3-29.7c-2.9,5.1-4,9.7-4,14.9
		c0,9.7,5.1,18.3,12.6,23.4c-4.6,0-9.1-1.1-12.6-3.4c0,0,0,0,0,0.6c0,13.7,9.7,25.1,22.9,27.4c-2.3,0.6-5.1,1.1-7.4,1.1
		c-1.7,0-3.4,0-5.1-0.6c3.4,11.4,14.3,19.4,26.3,19.4c-9.7,7.4-21.7,12-34.9,12c-2.3,0-4.6,0-6.9-0.6c12.6,8,27.4,12.6,43.4,12.6
		c52,0,80-42.9,80-80c0-1.1,0-2.3,0-3.4C157.1,65.1,162.3,60,165.7,54.3z"/>

</svg>
