<svg version="1.1" id="Layer_1" xmlns="http://www.w3.org/2000/svg" xmlns:xlink="http://www.w3.org/1999/xlink" x="0px" y="0px"
	 viewBox="0 0 1080 594" style="enable-background:new 0 0 1080 594;" xml:space="preserve">
<g>
	<path style="fill:#D70000;" d="M537.7,244.2c-31.7,0-52,13.6-62.5,23.8c16.4-31.3,51-80.1,100.7-122.7h-28.8
		c-53.9,49.9-112.4,136.5-112.4,198.9c0,61.2,44,104.3,103,104.3s103-44,103-102.1C640.8,288.3,596.7,244.2,537.7,244.2z
		 M535.8,430.4c-48,0-81.2-34.1-81.2-84.3c0-44.9,33.3-79.9,81.2-79.9s81.2,35,81.2,82.1S583.8,430.4,535.8,430.4z"/>
	<linearGradient id="SVGID_1_" gradientUnits="userSpaceOnUse" x1="177.7474" y1="319.6273" x2="897.7474" y2="319.6273">
		<stop  offset="0" style="stop-color:#C48739"/>
		<stop  offset="8.114608e-02" style="stop-color:#C89042"/>
		<stop  offset="0.2161" style="stop-color:#D4A95C"/>
		<stop  offset="0.387" style="stop-color:#E8D085"/>
		<stop  offset="0.5" style="stop-color:#F6EEA4"/>
		<stop  offset="0.9952" style="stop-color:#C48739"/>
	</linearGradient>
	<path style="fill:url(#SVGID_1_);" d="M464.1,419.3c0.1,0.1,0.2,0.2,0.3,0.3l0,0C464.3,419.5,464.2,419.4,464.1,419.3z M557,419.6
		c11.2-3,21.2-8.4,29.4-16H485.1c8,7.5,17.8,13,29.2,16H557z M516.5,219.6c-4.2,5.5-8.1,10.8-11.8,16h377.1v168H633.6
		c-3.4,5.7-7.2,11.1-11.6,16h275.7v-200H516.5z M442.1,403.6H193.7v-168h270.3c3.2-5.3,6.6-10.7,10.1-16H177.7v200h275.8
		C449.2,414.7,445.4,409.3,442.1,403.6z"/>
	<g>
		<path style="fill:#FFFFFF;" d="M270.7,331.2h-27.9v48.4h-14.1V263h44.2c23.7,0,39.4,13.1,39.4,34.1c0,16.6-9.9,28.3-25.8,32.5
			l32.9,50h-16.8L270.7,331.2z M242.8,318h29.9c16.6,0,24.7-6.9,24.7-20.9s-8.1-20.9-24.7-20.9h-29.9V318z"/>
		<path style="fill:#FFFFFF;" d="M420.8,366.4v13.3h-84.5V263h81.9v13.3h-67.7v37.7h52.7v13.3h-52.7v39.2H420.8z"/>
		<path style="fill:#FFFFFF;" d="M534.6,321.3c0,37.5-22.1,58.3-58.7,58.3h-37.7V263h37.7C512.5,263,534.6,283.8,534.6,321.3z
			 M519.8,321.3c0-28.3-15.7-45.1-42.4-45.1h-24.9v90.2h24.9C504.1,366.4,519.8,349.6,519.8,321.3z"/>
		<path style="fill:#FFFFFF;" d="M699.8,286l-12.2,9.9c-7.1-15.4-15.6-21.4-32.7-21.4c-18.6,0-28.8,8.7-28.8,19.8
			c0,11,7.8,16.4,32.4,20.7c31.3,5.3,42.4,15.2,42.4,33.2c0,20-17.9,33.2-45.1,33.2c-24.7,0-41-10.8-49.1-25.3l12.2-9.9
			c6.2,13.4,18.2,21.9,37.3,21.9c18,0,30.1-6.7,30.1-19.3c0-10.1-7.6-15.9-32.2-20.2c-31.5-5.5-42.8-15-42.8-32.9
			c0-18.7,16.4-34.6,43.5-34.6C676.1,261.2,690.7,269.7,699.8,286z"/>
		<path style="fill:#FFFFFF;" d="M735.6,379.7h-14.1V263h14.1V379.7z"/>
		<path style="fill:#FFFFFF;" d="M830.4,379.7l-31.6-48.3l-31.6,48.3h-16.4l40.8-59.4L754.2,263H771l29.7,45.6l29.9-45.6h15
			l-37.7,56.6l38.9,60.1H830.4z"/>
	</g>
</g>
</svg>
